<svg width="2331" height="1023" viewBox="0 0 2331 1023" fill="none" xmlns="http://www.w3.org/2000/svg">
<path d="M177.988 914.211L212.126 877.762C216.316 873.29 216.32 866.033 212.137 861.55L204.56 853.438C200.377 848.959 193.589 848.954 189.397 853.427L155.258 889.876L121.167 853.376C116.984 848.897 110.196 848.892 106.004 853.365L98.4165 861.465C94.2272 865.938 94.2225 873.195 98.4059 877.678L132.497 914.178L98.3584 950.626C94.1692 955.099 94.1644 962.356 98.3479 966.839L105.924 974.951C110.108 979.43 116.899 979.435 121.088 974.962L155.227 938.513L189.318 975.013C193.501 979.492 200.292 979.497 204.481 975.024L212.068 966.923C216.258 962.451 216.262 955.194 212.079 950.711L177.988 914.211Z" fill="#FFA33C"/>
<path d="M1117.66 207.785L1113.28 202.414C1112.07 200.929 1109.96 200.775 1108.57 202.068L1098.34 211.602L1089.43 200.664C1088.22 199.18 1086.11 199.025 1084.72 200.319L1079.7 205C1078.31 206.294 1078.17 208.545 1079.38 210.029L1088.29 220.967L1078.06 230.5C1076.68 231.794 1076.53 234.045 1077.74 235.529L1082.12 240.901C1083.33 242.385 1085.43 242.539 1086.82 241.246L1097.05 231.713L1105.97 242.65C1107.18 244.134 1109.29 244.289 1110.67 242.995L1115.7 238.314C1117.09 237.02 1117.23 234.769 1116.02 233.285L1107.1 222.347L1117.33 212.814C1118.72 211.52 1118.87 209.269 1117.66 207.785ZM1117.23 151.644L1066.44 147.919C1063.42 147.697 1060.63 149.681 1059.67 152.751L1037.44 223.191L1026.81 198.723C1026.31 197.566 1025.53 196.574 1024.54 195.851C1023.56 195.128 1022.41 194.701 1021.22 194.613L1004.29 193.371C1001.54 193.169 999.149 195.391 998.96 198.338L998.276 209.005C998.087 211.949 1000.17 214.502 1002.92 214.704L1011.99 215.369L1028.13 253.108C1030.44 257.692 1033.92 259.845 1037.79 260.129C1041.38 260.393 1047.16 258.807 1049.66 251.739L1075.33 170.005L1115.86 172.978C1118.61 173.18 1121 170.955 1121.19 168.01L1121.87 157.344C1122.06 154.397 1119.98 151.847 1117.23 151.644Z" fill="#FFA33C"/>
<path d="M112.677 50.6006L74.1153 51.5475L73.2296 10.3193C73.1209 5.2602 69.1954 1.25165 64.4636 1.36785L55.8944 1.57829C51.1626 1.6945 47.4134 5.89152 47.5221 10.9506L48.4078 52.1789L9.84655 53.1259C5.11476 53.2421 1.36552 57.4391 1.47421 62.4981L1.67104 71.66C1.77973 76.719 5.70525 80.7276 10.437 80.6114L48.9983 79.6644L49.884 120.893C49.9927 125.952 53.9182 129.96 58.65 129.844L67.2192 129.634C71.951 129.517 75.7002 125.32 75.5915 120.261L74.7058 79.0331L113.267 78.0861C117.999 77.9699 121.748 73.7729 121.639 68.7138L121.443 59.552C121.334 54.4929 117.408 50.4844 112.677 50.6006Z" fill="#F0DE36"/>
<path d="M1299.71 951.348C1290.42 949.384 1281.4 955.841 1279.56 965.772C1277.73 975.703 1283.77 985.344 1293.05 987.309C1302.34 989.273 1311.36 982.816 1313.2 972.885C1315.04 962.954 1309 953.313 1299.71 951.348ZM1309.69 897.408C1318.98 899.372 1327.99 892.916 1329.83 882.984C1331.67 873.053 1325.63 863.412 1316.34 861.448C1307.05 859.483 1298.03 865.94 1296.2 875.871C1294.36 885.803 1300.4 895.444 1309.69 897.408ZM1357.64 921.563L1256.74 900.224C1252.1 899.242 1247.59 902.471 1246.67 907.436L1245.01 916.426C1244.09 921.39 1247.11 926.212 1251.75 927.194L1352.65 948.533C1357.3 949.515 1361.81 946.285 1362.73 941.321L1364.39 932.331C1365.31 927.367 1362.29 922.544 1357.64 921.563Z" fill="#F0DE36"/>
<path d="M649.765 709.962L699.759 717.098L658.367 747.85C653.959 750.766 652.644 756.516 655.429 760.69L660.471 768.249C663.256 772.423 669.083 773.444 673.491 770.525L744.418 716.872C747.718 714.687 749.355 710.701 748.501 706.927L747.497 702.484C746.643 698.71 743.484 695.964 739.614 695.633L653.507 682.545C648.367 682.106 643.64 685.841 642.952 690.89L641.704 700.028C641.015 705.076 644.625 709.523 649.765 709.962ZM764.181 766.506L660.04 793.431C656.59 794.323 654.468 798.036 655.303 801.727L658.325 815.088C659.159 818.776 662.634 821.045 666.084 820.153L770.225 793.228C773.675 792.337 775.797 788.621 774.963 784.932L771.941 771.571C771.106 767.88 767.631 765.614 764.181 766.506Z" fill="#F0DE36"/>
<path d="M2088.62 120.775H1985.77C1981.03 120.775 1977.19 124.879 1977.19 129.939V139.104C1977.19 144.164 1981.03 148.268 1985.77 148.268H2088.62C2093.36 148.268 2097.19 144.164 2097.19 139.104V129.939C2097.19 124.879 2093.36 120.775 2088.62 120.775ZM2088.62 65.7894H1985.77C1981.03 65.7894 1977.19 69.8933 1977.19 74.9537V84.118C1977.19 89.1783 1981.03 93.2822 1985.77 93.2822H2088.62C2093.36 93.2822 2097.19 89.1783 2097.19 84.118V74.9537C2097.19 69.8933 2093.36 65.7894 2088.62 65.7894Z" fill="#FFA33C"/>
<path d="M2292.61 940.736C2296.81 943.067 2301.98 941.314 2304.16 936.822L2308.11 928.687C2310.29 924.195 2308.65 918.662 2304.45 916.332L2298.77 913.183L2319.34 903.039C2321.49 901.963 2322.41 899.235 2321.4 896.945L2317.76 888.648C2316.76 886.354 2314.2 885.371 2312.06 886.443L2279.5 902.497L2213.14 865.692C2208.94 863.362 2203.77 865.115 2201.59 869.607L2197.64 877.742C2195.46 882.234 2197.1 887.766 2201.3 890.097L2249.94 917.073L2220.38 931.649L2189.46 914.501C2185.26 912.171 2180.09 913.924 2177.91 918.416L2173.96 926.551C2171.78 931.043 2173.42 936.575 2177.62 938.906L2190.82 946.223L2170.24 956.367C2168.1 957.441 2167.18 960.169 2168.18 962.461L2171.82 970.759C2172.83 973.052 2175.38 974.035 2177.52 972.962L2210.08 956.909L2268.92 989.545C2273.13 991.876 2278.3 990.122 2280.48 985.631L2284.43 977.496C2286.61 973.004 2284.97 967.471 2280.77 965.141L2239.64 942.333L2269.21 927.757L2292.61 940.736Z" fill="#FFA33C"/>
</svg>
