<svg width="2345" height="901" viewBox="0 0 2345 901" fill="none" xmlns="http://www.w3.org/2000/svg">
<path d="M1857.89 726.634L1892.9 763.035L1841.35 761.788C1836.08 761.372 1831.5 765.093 1831.13 770.097L1830.45 779.158C1830.07 784.161 1834.04 788.554 1839.31 788.967L1928.23 790.349C1932.18 790.658 1935.92 788.525 1937.57 785.025L1939.51 780.906C1941.16 777.405 1940.37 773.297 1937.52 770.654L1877.72 707.332C1873.94 703.822 1867.91 703.855 1864.26 707.41L1857.66 713.843C1854.01 717.398 1854.11 723.124 1857.89 726.634ZM1913.25 841.629L1814.61 798.738C1811.34 797.317 1807.38 798.936 1805.77 802.359L1799.92 814.749C1798.31 818.169 1799.65 822.096 1802.92 823.517L1901.56 866.409C1904.83 867.83 1908.79 866.207 1910.4 862.787L1916.25 850.398C1917.86 846.975 1916.52 843.05 1913.25 841.629Z" fill="#F0DE36"/>
<path d="M996.787 836.257L1030.93 799.808C1035.11 795.336 1035.12 788.079 1030.94 783.596L1023.36 775.484C1019.18 771.005 1012.39 771 1008.2 775.473L974.058 811.922L939.967 775.422C935.783 770.943 928.996 770.938 924.803 775.411L917.216 783.511C913.027 787.984 913.022 795.241 917.205 799.724L951.296 836.223L917.158 872.672C912.968 877.145 912.964 884.402 917.147 888.885L924.724 896.997C928.907 901.476 935.698 901.481 939.887 897.008L974.026 860.559L1008.12 897.059C1012.3 901.538 1019.09 901.543 1023.28 897.07L1030.87 888.969C1035.06 884.497 1035.06 877.24 1030.88 872.757L996.787 836.257Z" fill="#FFA33C"/>
<path d="M2334.48 290.647L2295.92 291.594L2295.03 250.365C2294.93 245.306 2291 241.298 2286.27 241.414L2277.7 241.624C2272.97 241.741 2269.22 245.938 2269.33 250.997L2270.21 292.225L2231.65 293.172C2226.92 293.288 2223.17 297.485 2223.28 302.544L2223.48 311.706C2223.58 316.765 2227.51 320.774 2232.24 320.657L2270.8 319.71L2271.69 360.939C2271.8 365.998 2275.72 370.006 2280.46 369.89L2289.02 369.68C2293.76 369.563 2297.51 365.366 2297.4 360.307L2296.51 319.079L2335.07 318.132C2339.8 318.016 2343.55 313.819 2343.44 308.76L2343.25 299.598C2343.14 294.539 2339.21 290.53 2334.48 290.647Z" fill="#F0DE36"/>
<path d="M432.584 55.5803L330.29 66.3318C325.583 66.8266 322.195 71.3092 322.724 76.3419L323.681 85.4559C324.21 90.4886 328.457 94.1688 333.164 93.674L435.458 82.9225C440.165 82.4278 443.553 77.9452 443.024 72.9125L442.066 63.7984C441.537 58.7658 437.291 55.0856 432.584 55.5803ZM426.836 0.896L324.543 11.6475C319.835 12.1422 316.447 16.6248 316.976 21.6575L317.934 30.7716C318.463 35.8042 322.709 39.4844 327.416 38.9897L429.71 28.2382C434.417 27.7434 437.806 23.2608 437.277 18.2282L436.319 9.1141C435.79 4.08143 431.543 0.401263 426.836 0.896Z" fill="#FFA33C"/>
<path d="M1405 111.603L1400.62 106.232C1399.41 104.748 1397.31 104.593 1395.92 105.887L1385.69 115.42L1376.77 104.482C1375.56 102.998 1373.46 102.844 1372.07 104.137L1367.05 108.819C1365.66 110.112 1365.51 112.364 1366.72 113.848L1375.64 124.785L1365.41 134.319C1364.02 135.612 1363.88 137.863 1365.09 139.347L1369.47 144.719C1370.68 146.203 1372.78 146.358 1374.17 145.064L1384.4 135.531L1393.32 146.469C1394.53 147.953 1396.63 148.107 1398.02 146.814L1403.04 142.132C1404.43 140.838 1404.58 138.587 1403.37 137.103L1394.45 126.165L1404.68 116.632C1406.07 115.339 1406.21 113.088 1405 111.603ZM1404.57 55.4629L1353.79 51.737C1350.77 51.5153 1347.98 53.4991 1347.01 56.5695L1324.79 127.009L1314.16 102.541C1313.66 101.384 1312.87 100.392 1311.89 99.6695C1310.91 98.9467 1309.76 98.5191 1308.57 98.4314L1291.64 97.1892C1288.88 96.9871 1286.5 99.2099 1286.31 102.157L1285.62 112.823C1285.43 115.767 1287.51 118.32 1290.27 118.522L1299.33 119.187L1315.47 156.927C1317.79 161.511 1321.26 163.663 1325.14 163.948C1328.73 164.211 1334.5 162.625 1337.01 155.558L1362.68 73.8231L1403.2 76.796C1405.96 76.998 1408.35 74.7731 1408.54 71.8287L1409.22 61.1621C1409.41 58.2155 1407.33 55.6649 1404.57 55.4629Z" fill="#FFA33C"/>
<path d="M67.3687 712.394C58.0799 710.43 49.0625 716.887 47.2252 726.818C45.3879 736.749 51.4271 746.39 60.7158 748.355C70.0046 750.319 79.022 743.862 80.8593 733.931C82.6966 724 76.6574 714.359 67.3687 712.394ZM77.3479 658.454C86.6367 660.418 95.654 653.961 97.4913 644.03C99.3287 634.099 93.2895 624.458 84.0007 622.494C74.7119 620.529 65.6946 626.986 63.8573 636.917C62.02 646.848 68.0591 656.489 77.3479 658.454ZM125.304 682.608L24.402 661.27C19.7589 660.288 15.2487 663.517 14.3303 668.481L12.6671 677.471C11.7487 682.436 14.7693 687.258 19.4124 688.24L120.315 709.579C124.958 710.561 129.468 707.331 130.386 702.367L132.049 693.377C132.968 688.413 129.947 683.59 125.304 682.608Z" fill="#F0DE36"/>
</svg>
