<svg width="2766" height="200" viewBox="0 0 2766 200" fill="none" xmlns="http://www.w3.org/2000/svg">
<g clip-path="url(#clip0_67_8)">
<path d="M1049.2 363.373C988.697 284.662 894.963 209.553 781.148 148.579C667.333 87.6045 539.145 43.8235 414.561 23.3755C289.977 2.92754 175.246 6.83812 86.4572 34.5589C-2.33131 62.2796 -60.7239 112.42 -80.5317 177.949L368.712 335.946C373.641 319.64 388.17 307.164 410.263 300.266C432.356 293.368 460.905 292.395 491.905 297.483C522.905 302.571 554.801 313.465 583.122 328.637C611.442 343.81 634.766 362.499 649.822 382.084L1049.2 363.373Z" fill="#3D30A2"/>
<path d="M2998.8 363.428C3007.34 310.251 2952.93 253.375 2847.54 205.312C2742.16 157.25 2594.42 121.937 2436.84 107.144C2279.26 92.3497 2124.74 99.2862 2007.27 126.427C1889.81 153.568 1819.02 198.69 1810.48 251.867L2404.64 307.648L2998.8 363.428Z" fill="#3D30A2"/>
<path d="M2060.59 293.651C2060.59 238.363 1976.39 185.34 1826.51 146.245C1676.63 107.151 1473.35 85.1875 1261.39 85.1875C1049.43 85.1875 846.151 107.151 696.272 146.245C546.393 185.34 462.192 238.363 462.192 293.651L1261.39 293.651H2060.59Z" fill="#3D30A2"/>
</g>
</svg>
