<svg width="2766" height="200" viewBox="0 0 2766 200" fill="none" xmlns="http://www.w3.org/2000/svg">
<g clip-path="url(#clip0_67_8)">
<path d="M589.666 -135.414C646.689 -55.882 740.205 18.0032 856.549 75.4459C972.893 132.889 1105.97 170.878 1236.33 183.863C1366.69 196.849 1487.5 184.149 1581.11 147.62C1674.73 111.091 1736.23 52.6482 1756.65 -19.17L1146.47 -187.627L589.666 -135.414Z" fill="#3D30A2"/>
<path d="M-195.175 -3.37783C-197.384 22.5867 -182.803 48.2853 -152.263 72.2507C-121.723 96.2161 -75.8231 117.979 -17.1834 136.297C41.4564 154.614 111.687 169.128 189.5 179.009C267.312 188.891 351.182 193.946 436.321 193.887C521.459 193.827 606.199 188.654 685.703 178.663C765.206 168.672 837.916 154.058 899.68 135.657C961.445 117.255 1011.05 95.4253 1045.68 71.4144C1080.3 47.4035 1099.26 21.6815 1101.47 -4.28308L453.146 -3.83045L-195.175 -3.37783Z" fill="#3D30A2"/>
<path d="M1290 -44.0001C1290 11.9605 1382.25 65.6292 1546.46 105.199C1710.67 144.77 1933.38 167 2165.6 167C2397.83 167 2620.54 144.77 2784.75 105.199C2948.96 65.6292 3041.21 11.9606 3041.21 -44.0001L2165.6 -44.0001L1290 -44.0001Z" fill="#3D30A2"/>
</g>
</svg>
