<svg width="195" height="181" viewBox="0 0 195 181" fill="none" xmlns="http://www.w3.org/2000/svg">
<path d="M5.91072 52.9383C0.462769 56.6658 -2.83465 64.4076 3.33013 73.5831C9.35154 82.902 96.3753 145.553 99.5294 147.274C102.683 148.994 105.981 149.281 114.009 143.259C122.181 137.238 189.994 89.6402 191.714 88.2066C194.438 85.9127 195.155 80.3214 191.714 77.7408C191.714 77.7408 109.565 135.088 106.841 137.525C104.117 139.819 99.9595 136.091 100.82 131.217C101.68 126.342 102.253 125.769 112.576 118.17C123.042 110.572 182.252 68.7086 184.833 66.8449C187.843 64.6944 187.987 61.1102 182.969 57.8127C176.087 53.225 101.25 3.62001 98.6692 1.89961C96.0886 0.179207 92.6478 -1.39782 87.4866 2.04299C82.3253 5.34043 16.0898 46.2 5.91072 52.9383Z" fill="#7E57C2"/>
<path d="M99.5294 153.295C97.3789 152.148 59.2433 124.765 31.5734 103.547V147.991C31.5734 180.392 129.35 197.739 161.751 157.883V115.446C141.823 129.496 118.597 145.983 114.009 149.281C105.981 155.446 102.827 155.159 99.5294 153.295Z" fill="#7E57C2"/>
<path d="M140.962 104.694C140.962 104.694 155.443 111.575 156.589 138.958L149.564 137.095L143.973 148.277C141.536 118.17 128.633 113.869 128.633 113.869L140.962 104.694Z" fill="#D6BBEA"/>
</svg>
