<svg width="833" height="181" viewBox="0 0 833 181" fill="none" xmlns="http://www.w3.org/2000/svg">
<path d="M5.91072 52.9383C0.462769 56.6658 -2.83465 64.4076 3.33013 73.5831C9.35154 82.902 96.3753 145.553 99.5294 147.274C102.683 148.994 105.981 149.281 114.009 143.259C122.181 137.238 189.994 89.6402 191.714 88.2066C194.438 85.9127 195.155 80.3214 191.714 77.7408C191.714 77.7408 109.565 135.088 106.841 137.525C104.117 139.819 99.9595 136.091 100.82 131.217C101.68 126.342 102.253 125.769 112.576 118.17C123.042 110.572 182.252 68.7086 184.833 66.8449C187.843 64.6944 187.987 61.1102 182.969 57.8127C176.087 53.225 101.25 3.62001 98.6692 1.89961C96.0886 0.179207 92.6478 -1.39782 87.4866 2.04299C82.3253 5.34043 16.0898 46.2 5.91072 52.9383Z" fill="#7E57C2"/>
<path d="M99.5294 153.295C97.3789 152.148 59.2433 124.765 31.5734 103.547V147.991C31.5734 180.392 129.35 197.739 161.751 157.883V115.446C141.823 129.496 118.597 145.983 114.009 149.281C105.981 155.446 102.827 155.159 99.5294 153.295Z" fill="#7E57C2"/>
<path d="M140.962 104.694C140.962 104.694 155.443 111.575 156.589 138.958L149.564 137.095L143.973 148.277C141.536 118.17 128.633 113.869 128.633 113.869L140.962 104.694Z" fill="#D6BBEA"/>
<path d="M248.789 126.385H239V54.0837H245.859L276.507 104.397H271.819L302.445 54.0837H309.326V126.385H299.515V71.2745L301.816 71.9039L277.636 111.582H270.777L246.597 71.9039L248.789 71.2745V126.385ZM345.774 127.427C341.259 127.427 337.164 126.298 333.488 124.04C329.813 121.783 326.912 118.708 324.784 114.816C322.672 110.923 321.615 106.546 321.615 101.684C321.615 96.8218 322.672 92.4518 324.784 88.5737C326.912 84.6812 329.798 81.5846 333.445 79.2838C337.091 76.9975 341.201 75.8543 345.774 75.8543C349.536 75.8543 352.893 76.6357 355.845 78.1985C358.797 79.7613 361.17 81.9174 362.964 84.6667C364.773 87.4016 365.786 90.5779 366.003 94.1954V109.085C365.786 112.631 364.795 115.792 363.029 118.571C361.25 121.349 358.884 123.52 355.932 125.082C352.98 126.645 349.594 127.427 345.774 127.427ZM347.336 118.571C351.996 118.571 355.751 116.993 358.602 113.839C361.452 110.67 362.877 106.618 362.877 101.684C362.877 98.2833 362.234 95.3169 360.946 92.7846C359.658 90.2523 357.835 88.2699 355.476 86.8373C353.117 85.4192 350.375 84.7102 347.25 84.7102C344.124 84.7102 341.36 85.4409 338.958 86.9024C336.556 88.3639 334.682 90.3608 333.336 92.8931C331.976 95.4254 331.296 98.3267 331.296 101.597C331.296 104.925 331.976 107.855 333.336 110.388C334.682 112.92 336.57 114.917 339.001 116.378C341.432 117.84 344.211 118.571 347.336 118.571ZM371.733 126.385H362.248V113.058L364.006 100.968L362.248 88.9861V76.8962H371.733V126.385ZM402.143 126.385H392.766V56.1675H402.143V126.385ZM414.341 85.4481H380.589V76.8962H414.341V85.4481ZM467.897 126.385H458.521V97.5164C458.521 93.7686 457.334 90.6792 454.961 88.2481C452.602 85.8171 449.549 84.6016 445.801 84.6016C443.298 84.6016 441.077 85.1587 439.138 86.2729C437.184 87.3872 435.657 88.9138 434.558 90.8528C433.443 92.8063 432.886 95.0275 432.886 97.5164L429.023 95.3458C429.023 91.5836 429.855 88.2481 431.519 85.3396C433.197 82.4166 435.527 80.1086 438.508 78.4156C441.489 76.7081 444.861 75.8543 448.623 75.8543C452.371 75.8543 455.684 76.6864 458.564 78.3505C461.444 80.0145 463.715 82.3443 465.379 85.3396C467.058 88.3205 467.897 91.7572 467.897 95.6497V126.385ZM432.886 126.385H423.51V52H432.886V126.385ZM513.01 126.385H505.912L476.957 54.0837H487.571L511.447 115.228H507.584L531.655 54.0837H542.182L513.01 126.385ZM564.995 127.427C560.06 127.427 555.611 126.298 551.646 124.04C547.695 121.783 544.57 118.708 542.269 114.816C539.983 110.923 538.839 106.517 538.839 101.597C538.839 96.735 539.968 92.3577 542.226 88.4652C544.483 84.5727 547.536 81.4977 551.385 79.2404C555.249 76.983 559.575 75.8543 564.365 75.8543C568.952 75.8543 572.997 76.8962 576.498 78.9799C580.015 81.0636 582.757 83.9432 584.725 87.6187C586.707 91.3086 587.698 95.4761 587.698 100.121C587.698 100.816 587.662 101.568 587.59 102.378C587.532 103.174 587.395 104.093 587.178 105.135H545.395V97.321H582.185L578.734 100.338C578.734 97.0099 578.148 94.181 576.976 91.8513C575.789 89.5215 574.118 87.7127 571.962 86.4249C569.82 85.137 567.216 84.4931 564.148 84.4931C560.965 84.4931 558.157 85.1877 555.726 86.5768C553.295 87.966 551.414 89.9122 550.083 92.4156C548.766 94.919 548.108 97.8709 548.108 101.271C548.108 104.744 548.802 107.783 550.191 110.388C551.581 112.992 553.563 115.011 556.139 116.444C558.7 117.862 561.652 118.571 564.995 118.571C567.773 118.571 570.327 118.086 572.657 117.116C574.972 116.147 576.969 114.685 578.647 112.732L584.681 118.875C582.323 121.653 579.421 123.773 575.978 125.234C572.548 126.696 568.887 127.427 564.995 127.427ZM642.305 126.385H632.928V97.5164C632.928 93.7686 631.742 90.6792 629.369 88.2481C627.01 85.8171 623.957 84.6016 620.209 84.6016C617.706 84.6016 615.484 85.1587 613.545 86.2729C611.592 87.3872 610.065 88.9138 608.966 90.8528C607.851 92.8063 607.294 95.0275 607.294 97.5164L603.431 95.3458C603.431 91.5836 604.263 88.2481 605.927 85.3396C607.605 82.4166 609.935 80.1086 612.916 78.4156C615.897 76.7081 619.268 75.8543 623.031 75.8543C626.778 75.8543 630.092 76.7949 632.972 78.676C635.851 80.5427 638.123 82.9882 639.787 86.0125C641.466 89.0368 642.305 92.2492 642.305 95.6497V126.385ZM607.294 126.385H597.917V76.8962H607.294V126.385ZM671.36 126.385H661.983V56.1675H671.36V126.385ZM683.559 85.4481H649.807V76.8962H683.559V85.4481ZM712.718 127.427C708.623 127.427 704.962 126.508 701.735 124.67C698.508 122.832 695.99 120.278 694.181 117.008C692.372 113.738 691.468 109.954 691.468 105.656V76.8962H700.845V105.244C700.845 107.949 701.315 110.294 702.256 112.276C703.196 114.244 704.571 115.749 706.38 116.791C708.174 117.833 710.287 118.354 712.718 118.354C716.408 118.354 719.294 117.196 721.378 114.881C723.462 112.551 724.504 109.339 724.504 105.244V76.8962H733.881V105.656C733.881 109.954 732.976 113.738 731.167 117.008C729.359 120.278 726.877 122.832 723.722 124.67C720.553 126.508 716.885 127.427 712.718 127.427ZM755.864 126.385H746.487V76.8962H755.864V126.385ZM755.864 98.1458L752.326 96.5831C752.326 90.2595 753.78 85.2239 756.689 81.476C759.612 77.7282 763.815 75.8543 769.299 75.8543C771.803 75.8543 774.06 76.2884 776.072 77.1566C778.083 78.0249 779.957 79.4647 781.693 81.476L775.551 87.8357C774.509 86.7215 773.366 85.9257 772.121 85.4481C770.862 84.9562 769.401 84.7102 767.737 84.7102C764.264 84.7102 761.413 85.8244 759.185 88.0528C756.971 90.2668 755.864 93.6311 755.864 98.1458ZM809.624 127.427C804.69 127.427 800.24 126.298 796.275 124.04C792.325 121.783 789.199 118.708 786.898 114.816C784.612 110.923 783.469 106.517 783.469 101.597C783.469 96.735 784.598 92.3577 786.855 88.4652C789.112 84.5727 792.166 81.4977 796.015 79.2404C799.878 76.983 804.205 75.8543 808.995 75.8543C813.582 75.8543 817.626 76.8962 821.128 78.9799C824.644 81.0636 827.386 83.9432 829.354 87.6187C831.337 91.3086 832.328 95.4761 832.328 100.121C832.328 100.816 832.292 101.568 832.219 102.378C832.161 103.174 832.024 104.093 831.807 105.135H790.024V97.321H826.815L823.364 100.338C823.364 97.0099 822.777 94.181 821.605 91.8513C820.419 89.5215 818.747 87.7127 816.591 86.4249C814.45 85.137 811.845 84.4931 808.777 84.4931C805.594 84.4931 802.787 85.1877 800.356 86.5768C797.925 87.966 796.044 89.9122 794.712 92.4156C793.396 94.919 792.737 97.8709 792.737 101.271C792.737 104.744 793.432 107.783 794.821 110.388C796.21 112.992 798.192 115.011 800.768 116.444C803.329 117.862 806.281 118.571 809.624 118.571C812.402 118.571 814.956 118.086 817.286 117.116C819.601 116.147 821.598 114.685 823.277 112.732L829.311 118.875C826.952 121.653 824.051 123.773 820.607 125.234C817.177 126.696 813.516 127.427 809.624 127.427Z" fill="#0F1A47"/>
</svg>
