<svg width="594" height="294" viewBox="0 0 594 294" fill="none" xmlns="http://www.w3.org/2000/svg">
<path d="M205.911 52.9383C200.463 56.6658 197.165 64.4076 203.33 73.5831C209.352 82.902 296.375 145.553 299.529 147.274C302.683 148.994 305.981 149.281 314.009 143.259C322.181 137.238 389.994 89.6402 391.714 88.2066C394.438 85.9127 395.155 80.3214 391.714 77.7408C391.714 77.7408 309.565 135.088 306.841 137.525C304.117 139.819 299.959 136.091 300.82 131.217C301.68 126.342 302.253 125.769 312.576 118.17C323.042 110.572 382.252 68.7086 384.833 66.8449C387.843 64.6944 387.987 61.1102 382.969 57.8127C376.087 53.225 301.25 3.62001 298.669 1.89961C296.089 0.179207 292.648 -1.39782 287.487 2.04299C282.325 5.34043 216.09 46.2 205.911 52.9383Z" fill="#7E57C2"/>
<path d="M299.529 153.295C297.379 152.148 259.243 124.765 231.573 103.547V147.991C231.573 180.392 329.35 197.739 361.751 157.883V115.446C341.823 129.496 318.597 145.984 314.009 149.281C305.981 155.446 302.827 155.159 299.529 153.295Z" fill="#7E57C2"/>
<path d="M340.962 104.694C340.962 104.694 355.442 111.575 356.589 138.958L349.564 137.095L343.973 148.277C341.536 118.17 328.633 113.869 328.633 113.869L340.962 104.694Z" fill="#D6BBEA"/>
<path d="M9.78916 292.385H0V220.084H6.85894L37.5071 270.397H32.8187L63.4451 220.084H70.3258V292.385H60.5149V237.274L62.8156 237.904L38.6357 277.582H31.7768L7.59692 237.904L9.78916 237.274V292.385ZM106.774 293.427C102.259 293.427 98.1637 292.298 94.4883 290.04C90.8128 287.783 87.9115 284.708 85.7844 280.816C83.6717 276.923 82.6154 272.546 82.6154 267.684C82.6154 262.822 83.6717 258.452 85.7844 254.574C87.9115 250.681 90.7984 247.585 94.4449 245.284C98.0914 242.997 102.201 241.854 106.774 241.854C110.536 241.854 113.893 242.636 116.845 244.199C119.797 245.761 122.17 247.917 123.964 250.667C125.773 253.402 126.786 256.578 127.003 260.195V275.085C126.786 278.631 125.795 281.792 124.029 284.571C122.25 287.349 119.884 289.52 116.932 291.082C113.98 292.645 110.594 293.427 106.774 293.427ZM108.336 284.571C112.996 284.571 116.751 282.993 119.602 279.839C122.452 276.67 123.877 272.618 123.877 267.684C123.877 264.283 123.234 261.317 121.946 258.785C120.658 256.252 118.835 254.27 116.476 252.837C114.117 251.419 111.375 250.71 108.25 250.71C105.124 250.71 102.36 251.441 99.9581 252.902C97.556 254.364 95.6821 256.361 94.3363 258.893C92.9761 261.425 92.296 264.327 92.296 267.597C92.296 270.925 92.9761 273.855 94.3363 276.388C95.6821 278.92 97.5705 280.917 100.001 282.378C102.432 283.84 105.211 284.571 108.336 284.571ZM132.733 292.385H123.248V279.058L125.006 266.968L123.248 254.986V242.896H132.733V292.385ZM163.143 292.385H153.766V222.167H163.143V292.385ZM175.341 251.448H141.589V242.896H175.341V251.448ZM228.897 292.385H219.521V263.516C219.521 259.769 218.334 256.679 215.961 254.248C213.602 251.817 210.549 250.602 206.801 250.602C204.298 250.602 202.077 251.159 200.138 252.273C198.184 253.387 196.657 254.914 195.558 256.853C194.443 258.806 193.886 261.027 193.886 263.516L190.023 261.346C190.023 257.584 190.855 254.248 192.519 251.34C194.197 248.417 196.527 246.109 199.508 244.416C202.489 242.708 205.861 241.854 209.623 241.854C213.371 241.854 216.684 242.686 219.564 244.35C222.444 246.015 224.715 248.344 226.379 251.34C228.058 254.32 228.897 257.757 228.897 261.65V292.385ZM193.886 292.385H184.51V218H193.886V292.385ZM274.01 292.385H266.912L237.957 220.084H248.571L272.447 281.228H268.584L292.655 220.084H303.182L274.01 292.385ZM325.995 293.427C321.06 293.427 316.611 292.298 312.646 290.04C308.695 287.783 305.57 284.708 303.269 280.816C300.983 276.923 299.839 272.517 299.839 267.597C299.839 262.735 300.968 258.358 303.226 254.465C305.483 250.573 308.536 247.498 312.385 245.24C316.249 242.983 320.575 241.854 325.365 241.854C329.952 241.854 333.997 242.896 337.498 244.98C341.015 247.064 343.757 249.943 345.725 253.619C347.707 257.309 348.698 261.476 348.698 266.121C348.698 266.816 348.662 267.568 348.59 268.378C348.532 269.174 348.395 270.093 348.178 271.135H306.395V263.321H343.185L339.734 266.338C339.734 263.01 339.148 260.181 337.976 257.851C336.789 255.522 335.118 253.713 332.962 252.425C330.82 251.137 328.216 250.493 325.148 250.493C321.965 250.493 319.157 251.188 316.726 252.577C314.295 253.966 312.414 255.912 311.083 258.416C309.766 260.919 309.108 263.871 309.108 267.271C309.108 270.744 309.802 273.783 311.191 276.388C312.581 278.992 314.563 281.011 317.139 282.444C319.7 283.862 322.652 284.571 325.995 284.571C328.773 284.571 331.327 284.086 333.657 283.116C335.972 282.147 337.969 280.685 339.647 278.732L345.681 284.875C343.323 287.653 340.421 289.773 336.978 291.234C333.548 292.696 329.887 293.427 325.995 293.427ZM403.305 292.385H393.928V263.516C393.928 259.769 392.742 256.679 390.369 254.248C388.01 251.817 384.957 250.602 381.209 250.602C378.706 250.602 376.484 251.159 374.545 252.273C372.592 253.387 371.065 254.914 369.966 256.853C368.851 258.806 368.294 261.027 368.294 263.516L364.431 261.346C364.431 257.584 365.263 254.248 366.927 251.34C368.605 248.417 370.935 246.109 373.916 244.416C376.897 242.708 380.268 241.854 384.031 241.854C387.778 241.854 391.092 242.795 393.972 244.676C396.851 246.543 399.123 248.988 400.787 252.012C402.466 255.037 403.305 258.249 403.305 261.65V292.385ZM368.294 292.385H358.917V242.896H368.294V292.385ZM432.36 292.385H422.983V222.167H432.36V292.385ZM444.559 251.448H410.807V242.896H444.559V251.448ZM473.718 293.427C469.623 293.427 465.962 292.508 462.735 290.67C459.508 288.832 456.99 286.278 455.181 283.008C453.372 279.738 452.468 275.954 452.468 271.656V242.896H461.845V271.244C461.845 273.949 462.315 276.294 463.256 278.276C464.196 280.244 465.571 281.749 467.38 282.791C469.174 283.833 471.287 284.354 473.718 284.354C477.408 284.354 480.294 283.196 482.378 280.881C484.462 278.551 485.504 275.339 485.504 271.244V242.896H494.881V271.656C494.881 275.954 493.976 279.738 492.167 283.008C490.359 286.278 487.877 288.832 484.722 290.67C481.553 292.508 477.885 293.427 473.718 293.427ZM516.864 292.385H507.487V242.896H516.864V292.385ZM516.864 264.146L513.326 262.583C513.326 256.26 514.78 251.224 517.689 247.476C520.612 243.728 524.815 241.854 530.299 241.854C532.803 241.854 535.06 242.288 537.072 243.157C539.083 244.025 540.957 245.465 542.693 247.476L536.551 253.836C535.509 252.722 534.366 251.926 533.121 251.448C531.862 250.956 530.401 250.71 528.737 250.71C525.264 250.71 522.413 251.824 520.185 254.053C517.971 256.267 516.864 259.631 516.864 264.146ZM570.624 293.427C565.69 293.427 561.24 292.298 557.275 290.04C553.325 287.783 550.199 284.708 547.898 280.816C545.612 276.923 544.469 272.517 544.469 267.597C544.469 262.735 545.598 258.358 547.855 254.465C550.112 250.573 553.166 247.498 557.015 245.24C560.878 242.983 565.205 241.854 569.995 241.854C574.582 241.854 578.626 242.896 582.128 244.98C585.644 247.064 588.386 249.943 590.354 253.619C592.337 257.309 593.328 261.476 593.328 266.121C593.328 266.816 593.292 267.568 593.219 268.378C593.161 269.174 593.024 270.093 592.807 271.135H551.024V263.321H587.815L584.364 266.338C584.364 263.01 583.777 260.181 582.605 257.851C581.419 255.522 579.747 253.713 577.591 252.425C575.45 251.137 572.845 250.493 569.777 250.493C566.594 250.493 563.787 251.188 561.356 252.577C558.925 253.966 557.044 255.912 555.712 258.416C554.396 260.919 553.737 263.871 553.737 267.271C553.737 270.744 554.432 273.783 555.821 276.388C557.21 278.992 559.192 281.011 561.768 282.444C564.329 283.862 567.281 284.571 570.624 284.571C573.402 284.571 575.956 284.086 578.286 283.116C580.601 282.147 582.598 280.685 584.277 278.732L590.311 284.875C587.952 287.653 585.051 289.773 581.607 291.234C578.177 292.696 574.516 293.427 570.624 293.427Z" fill="#0F1A47"/>
</svg>
